<?xml version="1.0" encoding="utf-8"?><svg xmlns="http://www.w3.org/2000/svg" xmlns:xlink="http://www.w3.org/1999/xlink"><symbol viewBox="0 0 76 76" id="box" xmlns="http://www.w3.org/2000/svg"><path d="M38 76c-.3 0-.7-.1-.9-.2l-36-18C.4 57.5 0 56.8 0 56V20.1c0-.3.1-.6.2-.9v-.1c.2-.4.5-.7.9-.9l18-9 18-9c.6-.3 1.2-.3 1.8 0l36 18c.4.2.7.5.9 1 .1.3.2.6.2.9V56c0 .8-.4 1.4-1.1 1.8l-36 18c-.2.1-.6.2-.9.2zm2-36.7v31.5l32-16V23.3l-15.1 7.5L40 39.3zM4 54.8l32 16V39.3l-32-16v31.5zm2.5-34.7L38 35.8 51.5 29 20 13.3 6.5 20.1zm18-9L56 26.8 69.5 20 38 4.3l-13.5 6.8zM29 58c-.3 0-.6-.1-.9-.2l-18-9c-.7-.3-1.1-1-1.1-1.8v-9c0-1.1.9-2 2-2 .3 0 .6.1.9.2l18 9c.7.3 1.1 1 1.1 1.8v9c0 1.1-.9 2-2 2zM13 45.8l14 7v-4.5l-14-7v4.5z"/></symbol><symbol viewBox="0 0 26 25" id="chat" xmlns="http://www.w3.org/2000/svg"><path d="M7 23.3c-.4 0-.7-.3-.7-.7l-.1-5.9-5.7-2.9c-.3-.1-.5-.5-.3-.8v-.1c.1-.1.2-.2.3-.2L24.7.4c.3-.2.7-.1.9.3v.1c.1.2 0 .3 0 .5l-9.1 21.4c0 .1-.1.1-.1.2-.1.1-.3.2-.4.2-.1 0-.3 0-.4-.1l-5.1-3.6-3 3.6c-.1.2-.3.3-.5.3zm4.3-4.9l3.9 2.7-.2-7.2-3.7 4.5zm-3.8-1.7l.1 4.1 2.2-2.7 9.6-11.4-5.4 4.5-6.5 5.5zm8.8-4.3l.2 7L22.6 5l-6.3 7.4zM2.8 13.6l3.9 2L11 12l-8.2 1.6zm17.3-9.3L5.6 11.6l7.6-1.5 6.9-5.8z"/></symbol><symbol viewBox="0 0 23 23" id="clock" xmlns="http://www.w3.org/2000/svg"><path d="M11.5 0C17.9 0 23 5.1 23 11.5S17.9 23 11.5 23 0 17.8 0 11.5 5.1 0 11.5 0zM2.1 11.5c0 5.1 4.2 9.3 9.3 9.3 5.1 0 9.3-4.2 9.3-9.3s-4.2-9.3-9.3-9.3c-5.1 0-9.3 4.2-9.3 9.3zm12 2.3h-3.5c-.5 0-.9-.4-.9-.9V7.6c0-.5.4-.9.8-.9.5 0 .9.4.9.8V12H14c.5 0 .9.4.9.9.1.5-.3.9-.8.9z"/></symbol><symbol viewBox="0 0 76 76" id="clock-circled" xmlns="http://www.w3.org/2000/svg"><path d="M38 76C17.047 76 0 58.953 0 38S17.047 0 38 0s38 17.047 38 38-17.047 38-38 38zm0-72C19.252 4 4 19.252 4 38c0 18.748 15.252 34 34 34 18.748 0 34-15.252 34-34C72 19.252 56.748 4 38 4zm0 63C22.01 67 9 53.99 9 38S22.01 9 38 9s29 13.01 29 29-13.01 29-29 29zm0-54c-13.785 0-25 11.215-25 25s11.215 25 25 25 25-11.215 25-25-11.215-25-25-25zm9 27h-9a2 2 0 01-2-2v-9a2 2 0 014 0v7h7a2 2 0 010 4z"/></symbol><symbol viewBox="0 0 84 51" id="cloud" xmlns="http://www.w3.org/2000/svg"><path d="M8.19 50.982c-.394 0-.78-.117-1.107-.337-7.159-4.805-9.09-14.593-4.307-21.818 2.316-3.499 5.844-5.883 9.933-6.712a15.6 15.6 0 014.29-.269 2.025 2.025 0 01-.02-.808c1.149-6.469 4.731-12.1 10.086-15.858C32.42 1.423 38.907-.009 45.334 1.147c8.701 1.567 15.642 7.65 18.596 15.59a1.99 1.99 0 01.896-.172c6.074.25 11.565 3.261 15.06 8.262 2.97 4.247 4.112 9.173 3.215 13.868-.883 4.63-3.706 8.835-7.948 11.841a1.989 1.989 0 01-1.146.366l-65.815.08zm7.625-25.162a11.7 11.7 0 00-2.318.233 11.586 11.586 0 00-7.401 5.002c-3.455 5.218-2.21 12.227 2.723 15.91l64.535-.08c3.114-2.368 5.176-5.525 5.83-8.949.7-3.667-.186-7.4-2.56-10.796-2.708-3.874-6.922-6.244-11.607-6.542.29 1.493.448 3.031.456 4.6a2.001 2.001 0 01-1.983 2.02h-.011a2.002 2.002 0 01-1.995-1.997c-.057-9.91-7.145-18.372-16.852-20.12-5.378-.966-10.804.231-15.286 3.375-4.481 3.143-7.478 7.856-8.44 13.27a2.014 2.014 0 01-.336.808 15.57 15.57 0 013.863 1.886 2.017 2.017 0 01.554 2.785 1.986 1.986 0 01-2.767.557 11.45 11.45 0 00-6.405-1.962zm38.3-2.673a2 2 0 01-1.99-1.907c-.245-4.868-4.407-8.63-9.209-8.381a2.012 2.012 0 01-2.092-1.905 2.003 2.003 0 011.891-2.107c7.07-.348 13.039 5.111 13.393 12.19a2.003 2.003 0 01-1.994 2.11z"/></symbol><symbol viewBox="0 0 21 27" id="doc" xmlns="http://www.w3.org/2000/svg"><defs><filter id="fa" width="41" height="47" x="-10" y="-10" filterUnits="userSpaceOnUse"><feOffset dy="1" in="SourceGraphic" result="FeOffset1173Out"/><feGaussianBlur in="FeOffset1173Out" result="FeGaussianBlur1174Out" stdDeviation="0 0"/></filter><mask id="fb" width="2" height="2" x="-1" y="-1"><path d="M0 0h21v26H0z"/><path d="M19.617 26H1.457a.678.678 0 01-.672-.684V.684c0-.378.3-.684.672-.684h12.109a.666.666 0 01.47.197l.001.001v.001h.001L14.04.2l6.053 6.158.001.001h.001v.002h.001l.001.001a.688.688 0 01.193.478v18.476a.678.678 0 01-.672.684zM2.13 24.632h16.814V7.526h-5.38a.678.678 0 01-.673-.684V1.37H2.13zM14.236 6.158h3.757l-3.757-3.822zm2.354 14.71H4.484a.678.678 0 01-.673-.684c0-.378.301-.684.673-.684H16.59c.372 0 .673.306.673.684a.678.678 0 01-.673.684zm0-3.078H4.484a.679.679 0 01-.673-.685c0-.378.301-.684.673-.684H16.59c.372 0 .673.306.673.684a.679.679 0 01-.673.685zm-6.053-3.08H4.484a.678.678 0 01-.673-.684c0-.377.301-.684.673-.684h6.053a.68.68 0 01.673.684.678.678 0 01-.673.685zm-.473-7.184h-5.58a.678.678 0 01-.673-.684V3.763c0-.378.301-.684.673-.684h5.58c.371 0 .673.306.673.684v3.08a.678.678 0 01-.673.683zM5.156 6.158h4.236v-1.71H5.156z"/></mask></defs><g filter="url(#fa)"><path d="M19.617 26H1.457a.678.678 0 01-.672-.684V.684c0-.378.3-.684.672-.684h12.109a.666.666 0 01.47.197l.001.001v.001h.001L14.04.2l6.053 6.158.001.001h.001v.002h.001l.001.001a.688.688 0 01.193.478v18.476a.678.678 0 01-.672.684zM2.13 24.632h16.814V7.526h-5.38a.678.678 0 01-.673-.684V1.37H2.13zM14.236 6.158h3.757l-3.757-3.822zm2.354 14.71H4.484a.678.678 0 01-.673-.684c0-.378.301-.684.673-.684H16.59c.372 0 .673.306.673.684a.678.678 0 01-.673.684zm0-3.078H4.484a.679.679 0 01-.673-.685c0-.378.301-.684.673-.684H16.59c.372 0 .673.306.673.684a.679.679 0 01-.673.685zm-6.053-3.08H4.484a.678.678 0 01-.673-.684c0-.377.301-.684.673-.684h6.053a.68.68 0 01.673.684.678.678 0 01-.673.685zm-.473-7.184h-5.58a.678.678 0 01-.673-.684V3.763c0-.378.301-.684.673-.684h5.58c.371 0 .673.306.673.684v3.08a.678.678 0 01-.673.683zM5.156 6.158h4.236v-1.71H5.156z" mask="url(#fb)"/><path d="M19.617 26H1.457a.678.678 0 01-.672-.684V.684c0-.378.3-.684.672-.684h12.109a.666.666 0 01.47.197l.001.001v.001h.001L14.04.2l6.053 6.158.001.001h.001v.002h.001l.001.001a.688.688 0 01.193.478v18.476a.678.678 0 01-.672.684zM2.13 24.632h16.814V7.526h-5.38a.678.678 0 01-.673-.684V1.37H2.13zM14.236 6.158h3.757l-3.757-3.822zm2.354 14.71H4.484a.678.678 0 01-.673-.684c0-.378.301-.684.673-.684H16.59c.372 0 .673.306.673.684a.678.678 0 01-.673.684zm0-3.078H4.484a.679.679 0 01-.673-.685c0-.378.301-.684.673-.684H16.59c.372 0 .673.306.673.684a.679.679 0 01-.673.685zm-6.053-3.08H4.484a.678.678 0 01-.673-.684c0-.377.301-.684.673-.684h6.053a.68.68 0 01.673.684.678.678 0 01-.673.685zm-.473-7.184h-5.58a.678.678 0 01-.673-.684V3.763c0-.378.301-.684.673-.684h5.58c.371 0 .673.306.673.684v3.08a.678.678 0 01-.673.683zM5.156 6.158h4.236v-1.71H5.156z"/></g><path d="M19.617 26H1.457a.678.678 0 01-.672-.684V.684c0-.378.3-.684.672-.684h12.109a.666.666 0 01.47.197l.001.001v.001h.001L14.04.2l6.053 6.158.001.001h.001v.002h.001l.001.001a.688.688 0 01.193.478v18.476a.678.678 0 01-.672.684zM2.13 24.632h16.814V7.526h-5.38a.678.678 0 01-.673-.684V1.37H2.13zM14.236 6.158h3.757l-3.757-3.822zm2.354 14.71H4.484a.678.678 0 01-.673-.684c0-.378.301-.684.673-.684H16.59c.372 0 .673.306.673.684a.678.678 0 01-.673.684zm0-3.078H4.484a.679.679 0 01-.673-.685c0-.378.301-.684.673-.684H16.59c.372 0 .673.306.673.684a.679.679 0 01-.673.685zm-6.053-3.08H4.484a.678.678 0 01-.673-.684c0-.377.301-.684.673-.684h6.053a.68.68 0 01.673.684.678.678 0 01-.673.685zm-.473-7.184h-5.58a.678.678 0 01-.673-.684V3.763c0-.378.301-.684.673-.684h5.58c.371 0 .673.306.673.684v3.08a.678.678 0 01-.673.683zM5.156 6.158h4.236v-1.71H5.156z"/><path d="M19.617 26H1.457a.678.678 0 01-.672-.684V.684c0-.378.3-.684.672-.684h12.109a.666.666 0 01.47.197l.001.001v.001h.001L14.04.2l6.053 6.158.001.001h.001v.002h.001l.001.001a.688.688 0 01.193.478v18.476a.678.678 0 01-.672.684zM2.13 24.632h16.814V7.526h-5.38a.678.678 0 01-.673-.684V1.37H2.13zM14.236 6.158h3.757l-3.757-3.822zm2.354 14.71H4.484a.678.678 0 01-.673-.684c0-.378.301-.684.673-.684H16.59c.372 0 .673.306.673.684a.678.678 0 01-.673.684zm0-3.078H4.484a.679.679 0 01-.673-.685c0-.378.301-.684.673-.684H16.59c.372 0 .673.306.673.684a.679.679 0 01-.673.685zm-6.053-3.08H4.484a.678.678 0 01-.673-.684c0-.377.301-.684.673-.684h6.053a.68.68 0 01.673.684.678.678 0 01-.673.685zm-.473-7.184h-5.58a.678.678 0 01-.673-.684V3.763c0-.378.301-.684.673-.684h5.58c.371 0 .673.306.673.684v3.08a.678.678 0 01-.673.683zM5.156 6.158h4.236v-1.71H5.156z"/></symbol><symbol viewBox="0 0 8 14" id="dropdown" xmlns="http://www.w3.org/2000/svg"><text dominant-baseline="text-before-edge" font-family="'Quicksand','Quicksand-Bold'" font-size="11.42" font-style="none" font-weight="700"><tspan letter-spacing=".11">&lt;></tspan></text></symbol><symbol viewBox="0 0 6 12" id="facebook" xmlns="http://www.w3.org/2000/svg"><path d="M4 12H1.3V6H0V3.9h1.3V2.7C1.3 1 2.1 0 4.2 0H6v2.1H4.9c-.9 0-.9.3-.9.8v1h2L5.8 6H4v6z"/></symbol><symbol viewBox="0 0 48 51" id="logo" xmlns="http://www.w3.org/2000/svg"><defs><filter id="ia" width="68" height="71" x="-10" y="-10" filterUnits="userSpaceOnUse"><feOffset dy="1" in="SourceGraphic" result="FeOffset1095Out"/><feGaussianBlur in="FeOffset1095Out" result="FeGaussianBlur1096Out" stdDeviation="0 0"/></filter><mask id="ib" width="2" height="2" x="-1" y="-1"><path d="M0 0h48v50H0z"/><path d="M46.06 46.941a2.683 2.683 0 01-.977 2.46 2.737 2.737 0 01-2.638.437l-10.435-3.75a23.933 23.933 0 01-7.924 1.338c-7.316 0-14.372-3.344-18.875-8.946C1.223 33.52-.573 27.32.154 21.024c.728-6.297 3.892-11.937 8.91-15.88A24.227 24.227 0 0123.974 0c7.379 0 14.235 3.264 18.81 8.954 6.28 7.81 6.943 18.644 1.71 27.116zm-6.687-12.91c4.584-6.68 4.248-15.417-.836-21.74-3.54-4.403-8.846-6.929-14.56-6.929-4.234 0-8.224 1.376-11.537 3.98-3.884 3.052-6.333 7.417-6.897 12.29-.563 4.874.827 9.672 3.914 13.512 3.486 4.334 8.95 6.922 14.62 6.923a18.45 18.45 0 006.816-1.293 2.75 2.75 0 011.653-.115c.218.022.433.071.642.145l6.864 2.468-.98-6.813a2.67 2.67 0 01.301-2.429zM23.145 10.738a2.672 2.672 0 01-1.384 3.535c-3.403 1.488-6.014 4.344-7.164 7.835a2.704 2.704 0 01-2.578 1.851c-.287 0-.57-.045-.844-.133a2.683 2.683 0 01-1.574-1.333 2.636 2.636 0 01-.162-2.046c1.627-4.937 5.318-8.975 10.127-11.078.347-.153.717-.23 1.098-.23 1.073 0 2.047.627 2.48 1.599z"/></mask></defs><g filter="url(#ia)"><path d="M46.06 46.941a2.683 2.683 0 01-.977 2.46 2.737 2.737 0 01-2.638.437l-10.435-3.75a23.933 23.933 0 01-7.924 1.338c-7.316 0-14.372-3.344-18.875-8.946C1.223 33.52-.573 27.32.154 21.024c.728-6.297 3.892-11.937 8.91-15.88A24.227 24.227 0 0123.974 0c7.379 0 14.235 3.264 18.81 8.954 6.28 7.81 6.943 18.644 1.71 27.116zm-6.687-12.91c4.584-6.68 4.248-15.417-.836-21.74-3.54-4.403-8.846-6.929-14.56-6.929-4.234 0-8.224 1.376-11.537 3.98-3.884 3.052-6.333 7.417-6.897 12.29-.563 4.874.827 9.672 3.914 13.512 3.486 4.334 8.95 6.922 14.62 6.923a18.45 18.45 0 006.816-1.293 2.75 2.75 0 011.653-.115c.218.022.433.071.642.145l6.864 2.468-.98-6.813a2.67 2.67 0 01.301-2.429zM23.145 10.738a2.672 2.672 0 01-1.384 3.535c-3.403 1.488-6.014 4.344-7.164 7.835a2.704 2.704 0 01-2.578 1.851c-.287 0-.57-.045-.844-.133a2.683 2.683 0 01-1.574-1.333 2.636 2.636 0 01-.162-2.046c1.627-4.937 5.318-8.975 10.127-11.078.347-.153.717-.23 1.098-.23 1.073 0 2.047.627 2.48 1.599z" mask="url(#ib)"/><path d="M46.06 46.941a2.683 2.683 0 01-.977 2.46 2.737 2.737 0 01-2.638.437l-10.435-3.75a23.933 23.933 0 01-7.924 1.338c-7.316 0-14.372-3.344-18.875-8.946C1.223 33.52-.573 27.32.154 21.024c.728-6.297 3.892-11.937 8.91-15.88A24.227 24.227 0 0123.974 0c7.379 0 14.235 3.264 18.81 8.954 6.28 7.81 6.943 18.644 1.71 27.116zm-6.687-12.91c4.584-6.68 4.248-15.417-.836-21.74-3.54-4.403-8.846-6.929-14.56-6.929-4.234 0-8.224 1.376-11.537 3.98-3.884 3.052-6.333 7.417-6.897 12.29-.563 4.874.827 9.672 3.914 13.512 3.486 4.334 8.95 6.922 14.62 6.923a18.45 18.45 0 006.816-1.293 2.75 2.75 0 011.653-.115c.218.022.433.071.642.145l6.864 2.468-.98-6.813a2.67 2.67 0 01.301-2.429zM23.145 10.738a2.672 2.672 0 01-1.384 3.535c-3.403 1.488-6.014 4.344-7.164 7.835a2.704 2.704 0 01-2.578 1.851c-.287 0-.57-.045-.844-.133a2.683 2.683 0 01-1.574-1.333 2.636 2.636 0 01-.162-2.046c1.627-4.937 5.318-8.975 10.127-11.078.347-.153.717-.23 1.098-.23 1.073 0 2.047.627 2.48 1.599z"/></g><path d="M46.06 46.941a2.683 2.683 0 01-.977 2.46 2.737 2.737 0 01-2.638.437l-10.435-3.75a23.933 23.933 0 01-7.924 1.338c-7.316 0-14.372-3.344-18.875-8.946C1.223 33.52-.573 27.32.154 21.024c.728-6.297 3.892-11.937 8.91-15.88A24.227 24.227 0 0123.974 0c7.379 0 14.235 3.264 18.81 8.954 6.28 7.81 6.943 18.644 1.71 27.116zm-6.687-12.91c4.584-6.68 4.248-15.417-.836-21.74-3.54-4.403-8.846-6.929-14.56-6.929-4.234 0-8.224 1.376-11.537 3.98-3.884 3.052-6.333 7.417-6.897 12.29-.563 4.874.827 9.672 3.914 13.512 3.486 4.334 8.95 6.922 14.62 6.923a18.45 18.45 0 006.816-1.293 2.75 2.75 0 011.653-.115c.218.022.433.071.642.145l6.864 2.468-.98-6.813a2.67 2.67 0 01.301-2.429zM23.145 10.738a2.672 2.672 0 01-1.384 3.535c-3.403 1.488-6.014 4.344-7.164 7.835a2.704 2.704 0 01-2.578 1.851c-.287 0-.57-.045-.844-.133a2.683 2.683 0 01-1.574-1.333 2.636 2.636 0 01-.162-2.046c1.627-4.937 5.318-8.975 10.127-11.078.347-.153.717-.23 1.098-.23 1.073 0 2.047.627 2.48 1.599z"/><path d="M46.06 46.941a2.683 2.683 0 01-.977 2.46 2.737 2.737 0 01-2.638.437l-10.435-3.75a23.933 23.933 0 01-7.924 1.338c-7.316 0-14.372-3.344-18.875-8.946C1.223 33.52-.573 27.32.154 21.024c.728-6.297 3.892-11.937 8.91-15.88A24.227 24.227 0 0123.974 0c7.379 0 14.235 3.264 18.81 8.954 6.28 7.81 6.943 18.644 1.71 27.116zm-6.687-12.91c4.584-6.68 4.248-15.417-.836-21.74-3.54-4.403-8.846-6.929-14.56-6.929-4.234 0-8.224 1.376-11.537 3.98-3.884 3.052-6.333 7.417-6.897 12.29-.563 4.874.827 9.672 3.914 13.512 3.486 4.334 8.95 6.922 14.62 6.923a18.45 18.45 0 006.816-1.293 2.75 2.75 0 011.653-.115c.218.022.433.071.642.145l6.864 2.468-.98-6.813a2.67 2.67 0 01.301-2.429zM23.145 10.738a2.672 2.672 0 01-1.384 3.535c-3.403 1.488-6.014 4.344-7.164 7.835a2.704 2.704 0 01-2.578 1.851c-.287 0-.57-.045-.844-.133a2.683 2.683 0 01-1.574-1.333 2.636 2.636 0 01-.162-2.046c1.627-4.937 5.318-8.975 10.127-11.078.347-.153.717-.23 1.098-.23 1.073 0 2.047.627 2.48 1.599z"/></symbol><symbol viewBox="0 0 13 9" id="mail" xmlns="http://www.w3.org/2000/svg"><path d="M13.007 8.952V.636L9.033 3.922zM6.51 5.342l6.463-5.345H.047zm-2.523-1.42L.008.632l-.01 8.342zm.318.263L.497 9.008h12.027l-3.81-4.823-2.202 1.822v.002l-.001-.001-.002.001v-.002z"/></symbol><symbol viewBox="0 0 11 18" id="map" xmlns="http://www.w3.org/2000/svg"><defs><filter id="ka" width="31" height="38" x="-10" y="-10" filterUnits="userSpaceOnUse"><feOffset dy="1" in="SourceGraphic" result="FeOffset1065Out"/><feGaussianBlur in="FeOffset1065Out" result="FeGaussianBlur1066Out" stdDeviation="0 0"/></filter><mask id="kb" width="2" height="2" x="-1" y="-1"><path d="M0 0h11v17H0z"/><path d="M2.265 5.354c0-1.878 1.45-3.4 3.237-3.4 1.788 0 3.237 1.522 3.237 3.4 0 1.877-1.45 3.4-3.237 3.4-1.787 0-3.237-1.522-3.237-3.4zM0 5.779c0 1.422 1.641 4.42 1.641 4.42L5.502 17l3.639-6.8s1.863-3.02 1.863-4.42c0-3.193-2.463-5.781-5.502-5.781C2.463-.002 0 2.586 0 5.778z"/></mask></defs><g filter="url(#ka)"><path d="M2.265 5.354c0-1.878 1.45-3.4 3.237-3.4 1.788 0 3.237 1.522 3.237 3.4 0 1.877-1.45 3.4-3.237 3.4-1.787 0-3.237-1.522-3.237-3.4zM0 5.779c0 1.422 1.641 4.42 1.641 4.42L5.502 17l3.639-6.8s1.863-3.02 1.863-4.42c0-3.193-2.463-5.781-5.502-5.781C2.463-.002 0 2.586 0 5.778z" mask="url(#kb)"/><path d="M2.265 5.354c0-1.878 1.45-3.4 3.237-3.4 1.788 0 3.237 1.522 3.237 3.4 0 1.877-1.45 3.4-3.237 3.4-1.787 0-3.237-1.522-3.237-3.4zM0 5.779c0 1.422 1.641 4.42 1.641 4.42L5.502 17l3.639-6.8s1.863-3.02 1.863-4.42c0-3.193-2.463-5.781-5.502-5.781C2.463-.002 0 2.586 0 5.778z"/></g><path d="M2.265 5.354c0-1.878 1.45-3.4 3.237-3.4 1.788 0 3.237 1.522 3.237 3.4 0 1.877-1.45 3.4-3.237 3.4-1.787 0-3.237-1.522-3.237-3.4zM0 5.779c0 1.422 1.641 4.42 1.641 4.42L5.502 17l3.639-6.8s1.863-3.02 1.863-4.42c0-3.193-2.463-5.781-5.502-5.781C2.463-.002 0 2.586 0 5.778z"/><path d="M2.265 5.354c0-1.878 1.45-3.4 3.237-3.4 1.788 0 3.237 1.522 3.237 3.4 0 1.877-1.45 3.4-3.237 3.4-1.787 0-3.237-1.522-3.237-3.4zM0 5.779c0 1.422 1.641 4.42 1.641 4.42L5.502 17l3.639-6.8s1.863-3.02 1.863-4.42c0-3.193-2.463-5.781-5.502-5.781C2.463-.002 0 2.586 0 5.778z"/></symbol><symbol viewBox="0 0 45 70" id="map-filled" xmlns="http://www.w3.org/2000/svg"><path d="M22.5 69.996L1.846 31.32A22.285 22.285 0 010 22.41C0 10.029 10.074-.01 22.5-.01S45 10.028 45 22.41c0 3.247-.693 6.334-1.94 9.12zm0-59.24c-5.964 0-10.8 4.818-10.8 10.763 0 5.944 4.836 10.763 10.8 10.763 5.965 0 10.8-4.82 10.8-10.763 0-5.945-4.835-10.763-10.8-10.763z"/><path d="M22.5 69.996L1.846 31.32A22.285 22.285 0 010 22.41C0 10.029 10.074-.01 22.5-.01S45 10.028 45 22.41c0 3.247-.693 6.334-1.94 9.12zm0-59.24c-5.964 0-10.8 4.818-10.8 10.763 0 5.944 4.836 10.763 10.8 10.763 5.965 0 10.8-4.82 10.8-10.763 0-5.945-4.835-10.763-10.8-10.763z"/></symbol><symbol viewBox="0 0 9 9" id="rss" xmlns="http://www.w3.org/2000/svg"><path d="M0 3.1c3.3 0 5.9 2.7 5.9 5.9H4.2c0-1.1-.4-2.2-1.2-3-.8-.8-1.9-1.2-3-1.2V3.1zM0 0c5 0 9 4 9 9H7.3C7.3 5 4 1.7 0 1.7V0zm2.4 7.8c0 .7-.5 1.2-1.2 1.2S0 8.5 0 7.8s.5-1.2 1.2-1.2 1.2.5 1.2 1.2z"/></symbol><symbol viewBox="0 0 384 384" id="tel" xmlns="http://www.w3.org/2000/svg"><path d="M353.188 252.052c-23.51 0-46.594-3.677-68.469-10.906-10.719-3.656-23.896-.302-30.438 6.417l-43.177 32.594c-50.073-26.729-80.917-57.563-107.281-107.26l31.635-42.052c8.219-8.208 11.167-20.198 7.635-31.448-7.26-21.99-10.948-45.063-10.948-68.583C132.146 13.823 118.323 0 101.333 0h-70.52C13.823 0 0 13.823 0 30.813 0 225.563 158.438 384 353.188 384c16.99 0 30.813-13.823 30.813-30.813v-70.323c-.001-16.989-13.824-30.812-30.813-30.812z"/></symbol><symbol viewBox="0 0 26 18" id="tw" xmlns="http://www.w3.org/2000/svg"><path d="M26 8.3c-.9.2-2.2 0-2.9-.3 1.5-.1 2.5-.8 2.8-1.7-.5.3-2.2.7-3.1.3 0-.2-.1-.4-.1-.6-.7-2.5-3-4.6-5.5-4.3.2-.1.4-.2.6-.2.3-.1 1.9-.4 1.6-.9-.2-.5-2.2.4-2.5.5.5-.2 1.3-.5 1.4-1.1-.8.1-1.5.4-2 1 .2-.2.4-.5.4-.8-2 1.3-3.1 3.8-4.1 6.3-.7-.7-1.4-1.3-2-1.6C8.9 4 6.9 3.1 3.9 2c-.1 1 .5 2.3 2.2 3.2-.4 0-1.1.1-1.6.2.2 1.2.9 2.2 2.9 2.6-.9.1-1.4.3-1.8.7.4.9 1.4 1.8 3.2 1.6-2 .9-.8 2.5.8 2.2-2.8 2.9-7.1 2.7-9.6.3 6.5 9 20.8 5.3 22.9-3.3 1.6 0 2.5-.6 3.1-1.2z"/></symbol><symbol viewBox="0 0 25.6 26" id="web" xmlns="http://www.w3.org/2000/svg"><path d="M12.8 26C5.7 26 0 20.2 0 13S5.7 0 12.8 0s12.8 5.8 12.8 13-5.8 13-12.8 13zm5.4-6c-.9 2-2 3.4-3 4.4 2-.4 3.9-1.4 5.3-2.8-.7-.6-1.5-1.1-2.3-1.6zM5 21.6c1.5 1.4 3.4 2.4 5.4 2.8-1-1-2.2-2.4-3.1-4.5-.7.4-1.5 1-2.3 1.7zm8.5-3.1V24c1-.8 2.4-2.2 3.5-4.6-1.2-.5-2.3-.8-3.5-.9zm-4.9.8c1 2.5 2.6 4 3.5 4.8v-5.6c-1.2 0-2.4.3-3.5.8zm10-.5c1.2.6 2.2 1.3 2.8 1.8 1.7-1.9 2.6-4.4 2.8-6.9h-4.7c-.1 2-.4 3.6-.9 5.1zM1.4 13.7c.1 2.5 1.1 4.9 2.7 6.9.8-.8 1.8-1.4 2.8-2-.4-1.4-.7-3-.8-4.9H1.4zm12.1 3.5c1.4.1 2.8.5 3.9 1 .4-1.3.7-2.8.8-4.5h-4.7v3.5zm-6.1-3.5c.1 1.6.3 3.1.7 4.3 1.3-.5 2.6-.8 4-.9v-3.4H7.4zm12.1-1.4h4.7c-.1-2.5-1.1-4.9-2.7-6.9-.8.8-1.8 1.4-2.8 2 .4 1.4.7 3 .8 4.9zm-6 0h4.7c-.1-1.6-.3-3.1-.7-4.3-1.3.5-2.6.8-4 .9v3.4zm-6.1 0h4.7V8.8c-1.4-.1-2.8-.5-3.9-1-.4 1.3-.7 2.8-.8 4.5zm-6 0h4.7c.1-2 .4-3.7.9-5.1-1-.5-2-1.1-2.9-1.8-1.6 1.9-2.6 4.4-2.7 6.9zM13.5 1.9v5.6c1.2 0 2.4-.3 3.5-.8-1-2.5-2.6-4-3.5-4.8zM8.6 6.6c1.1.5 2.3.8 3.5.9V1.9c-1 .8-2.4 2.3-3.5 4.7zm6.5-5c1 1 2.2 2.4 3.1 4.5.8-.4 1.5-1 2.3-1.7C19 3 17.2 2.1 15.1 1.6zm-10 2.8C5.8 5 6.6 5.5 7.4 6c.9-2 2-3.4 3-4.4-2 .5-3.8 1.4-5.3 2.8z"/></symbol></svg>